Die Fremde / When We Leave (2010) (1080p)       

Vanaf 4 november 2010 in de bioscoop


Duitsland

Drama

119 minuten

geregisseerd door Feo Aladag
met Sibel Kekilli, Nizam Schiller en Derya Alabora

25-jarige Umay staat met haar kleine zoontje opeens voor de deur van haar ouders in Berlijn. Ze is weer teruggekeerd na een ongelukkig huwelijk in Istanbul. Umays ouders en de rest van de familie zijn niet bepaald gelukkig met haar wens een eigen onafhankelijk leven te gaan leiden in Berlijn. Umay hoopt echter dat hun liefde voor haar het uiteindelijk zal winnen van de maatschappelijke dwang en culturele conventies. Maar wanneer de familie besluit haar zoontje naar vader in Istanbul te sturen is voor Umay de maat vol.

English

Umay is a young woman of Turkish descent, fighting for an independent and self-determined life in Germany against the resistance of her family. Her struggle initiates a dynamic, which results in a life-threatening situation. 




Gestreamd Voor PS3 + Popcorn + Mediabox



===================================================

-------- Source: Die.Fremde.2010.1080p.BluRay.DTS5.1.x264-h264iRMU
-------- Video Format: X264 / Mkv
-------- Video Info: 1920x 816 23.98 Fps
-------- Geluidinfo: German DTS 6ch 48 Khz 1.54 Mbps
-------- Subs: Englisch / Dutch Custom ->R-knorloading
-------- Bestandgrote: 11.40 Gb
-------- Speelduur: 119 Minuten
-------- Imdb : IMDb (8,0 / 317)

===================================================
Spotinformatie 
Categorie : Beeld 
Formaat : x264HD 
Bron : Retail
 
Ondertitels : Nederlands (instelbaar)
Engels (instelbaar)

Format                           : Matroska
File size                        : 11.4 GiB
Duration                         : 1h 59mn
Overall bit rate                 : 13.7 Mbps
Encoded date                     : UTC 2010-09-20 18:03:35
Writing application              : mkvmerge v3.0.0 ('Hang up your Hang-Ups') built on Dec 12 2009 15:20:35
Writing library                  : libebml v0.7.9 + libmatroska v0.8.1

Video
ID                               : 1
Format                           : AVC
Format/Info                      : Advanced Video Codec
Format profile                   : High@L4.1
Format settings, CABAC           : Yes
Format settings, ReFrames        : 5 frames
Muxing mode                      : Container profile=Unknown@4.1
Codec ID                         : V_MPEG4/ISO/AVC
Duration                         : 1h 59mn
Bit rate                         : 12.2 Mbps
Width                            : 1 920 pixels
Height                           : 816 pixels
Display aspect ratio             : 2.35:1
Frame rate                       : 23.976 fps
Color space                      : YUV
Chroma subsampling               : 4:2:0
Bit depth                        : 8 bits
Scan type                        : Progressive
Bits/(Pixel*Frame)               : 0.325
Stream size                      : 9.96 GiB (87%)
Title                            : DIE FREMDE
Writing library                  : x264 core 100 r1659 57b2e56
Encoding settings                : cabac=1 / ref=5 / deblock=1:-3:-3 / analyse=0x3:0x133 / me=umh / subme=10 / psy=1 / psy_rd=1.00:0.60 / mixed_ref=1 / me_range=44 / chroma_me=1 / trellis=2 / 8x8dct=1 / cqm=0 / deadzone=21,11 / fast_pskip=0 / chroma_qp_offset=-1 / threads=6 / sliced_threads=0 / nr=0 / decimate=0 / interlaced=0 / constrained_intra=0 / bframes=16 / b_pyramid=2 / b_adapt=2 / b_bias=0 / direct=3 / weightb=1 / open_gop=0 / weightp=2 / keyint=250 / keyint_min=25 / scenecut=40 / intra_refresh=0 / rc_lookahead=120 / rc=2pass / mbtree=1 / bitrate=12200 / ratetol=1.5 / qcomp=0.50 / qpmin=10 / qpmax=51 / qpstep=4 / cplxblur=20.0 / qblur=0.5 / vbv_maxrate=50000 / vbv_bufsize=62500 / ip_ratio=1.40 / aq=2:0.70 / nal_hrd=none
Language                         : German

Audio
ID                               : 2
Format                           : DTS
Format/Info                      : Digital Theater Systems
Codec ID                         : A_DTS
Duration                         : 1h 59mn
Bit rate mode                    : Constant
Bit rate                         : 1 510 Kbps
Channel(s)                       : 6 channels
Channel positions                : Front: L C R, Side: L R, LFE
Sampling rate                    : 48.0 KHz
Bit depth                        : 24 bits
Stream size                      : 1.26 GiB (11%)
Title                            : DTS 5.1 1509Kbps
Language                         : German

Text #1
ID                               : 3
Format                           : UTF-8
Codec ID                         : S_TEXT/UTF8
Codec ID/Info                    : UTF-8 Plain Text
Title                            : English
Language                         : English

Text #2
ID                               : 4
Format                           : UTF-8
Codec ID                         : S_TEXT/UTF8
Codec ID/Info                    : UTF-8 Plain Text
Language                         : Dutch
 
Genre : Drama
 
Weblink :  http://www.moviemeter.nl/film/64536 
Weblink :  http://www.imdb.com/title/tt1288376

******************************************

Brought to you by 


2Lions Team

meer zien??
Kom dan eens kijken op ons forum 
                        
http://www.2lions-site.nl


2Lions the site to be for all your Dutch MOVIES and more

******************************************


DON T HIT AND RUN Niet gelijk afhaken als de FILM binnen is blijf seeden. 

Don`t quit after you finished the download, but keep seeding


There are fake torrents from uploaders who use our team name.
Those are not ours, or members from our team.
We 2Lions-Team are not responsible for the fake posts on our name

Wij 2Lions-Team zijn niet verantwoordelijk voor die zieke FAKE posten die op onze naam worden gedaan



Please check our site !!!
                       
http://www.2lions-site.nl 



 
 
 
